<?xml version="1.0" standalone="no"?>
<!DOCTYPE svg PUBLIC "-//W3C//DTD SVG 20010904//EN"
 "http://www.w3.org/TR/2001/REC-SVG-20010904/DTD/svg10.dtd">
<svg version="1.0" xmlns="http://www.w3.org/2000/svg"
 width="1045.000000pt" height="1045.000000pt" viewBox="0 0 1045.000000 1045.000000"
 preserveAspectRatio="xMidYMid meet">
<metadata>
Created by potrace 1.14, written by Peter Selinger 2001-2017
</metadata>
<g transform="translate(0.000000,1045.000000) scale(0.100000,-0.100000)"
fill="#000000" stroke="none">
<path d="M641 8500 c-45 -24 -46 -26 -47 -75 -1 -28 2 -54 6 -60 4 -5 11 -25
15 -43 4 -19 11 -30 17 -26 7 5 9 0 6 -14 -3 -12 -2 -22 4 -24 5 -2 10 -10 11
-18 2 -8 6 -21 10 -27 5 -7 5 -13 1 -13 -4 0 0 -6 9 -12 10 -7 19 -22 21 -33
10 -51 19 -75 27 -75 5 0 9 -11 9 -25 0 -14 5 -25 11 -25 5 0 7 -4 4 -10 -3
-5 3 -19 14 -31 11 -12 18 -25 16 -29 -3 -4 2 -22 11 -39 9 -18 17 -37 19 -44
9 -37 18 -57 26 -57 5 0 8 -3 7 -7 -1 -10 7 -33 35 -93 11 -25 22 -50 23 -57
1 -7 9 -26 18 -44 9 -17 13 -35 10 -40 -3 -5 -1 -9 3 -9 5 0 15 -16 22 -35 7
-19 16 -35 21 -35 4 0 6 -9 3 -20 -3 -11 0 -20 6 -20 6 0 11 -8 11 -17 0 -10
14 -45 30 -78 16 -33 30 -67 30 -75 0 -9 5 -21 12 -28 7 -7 9 -12 5 -12 -4 0
1 -10 12 -22 11 -11 18 -25 15 -29 -3 -5 3 -23 13 -41 9 -18 18 -41 20 -50 1
-9 12 -33 23 -52 11 -20 22 -48 25 -63 2 -15 9 -29 15 -31 5 -2 10 -12 10 -21
0 -10 11 -40 25 -66 14 -26 23 -50 21 -53 -3 -2 4 -18 15 -33 11 -16 17 -29
13 -29 -5 0 -3 -5 4 -12 7 -7 12 -20 12 -30 0 -10 5 -18 10 -18 6 0 9 -3 8 -7
-1 -5 4 -24 11 -43 8 -19 13 -39 12 -43 0 -4 5 -10 13 -13 8 -3 12 -12 9 -20
-3 -8 0 -14 7 -14 6 0 9 -4 6 -8 -3 -5 3 -26 13 -48 25 -53 34 -78 33 -86 -1
-5 2 -8 8 -8 6 0 9 -3 8 -7 -2 -9 13 -46 43 -108 10 -22 19 -48 19 -57 0 -10
5 -18 11 -18 5 0 7 -4 4 -10 -3 -5 -1 -10 6 -10 6 0 9 -8 6 -20 -3 -11 -2 -20
2 -20 6 0 43 -77 39 -83 0 -1 9 -21 21 -44 12 -24 19 -43 16 -43 -2 0 7 -21
20 -46 14 -26 25 -55 25 -65 0 -11 4 -19 9 -19 5 0 12 -13 16 -30 4 -16 11
-30 17 -30 5 0 8 -6 5 -12 -2 -7 3 -26 11 -43 9 -16 17 -32 17 -35 11 -41 19
-60 27 -60 6 0 8 -6 5 -14 -3 -8 1 -17 9 -20 9 -3 13 -10 10 -15 -8 -12 14
-61 26 -61 5 0 6 -5 2 -11 -5 -9 20 -73 36 -89 3 -3 6 -14 8 -25 2 -11 10 -30
18 -43 8 -12 12 -26 9 -31 -2 -5 2 -12 11 -15 8 -3 13 -10 10 -15 -4 -5 0 -22
8 -38 31 -60 66 -144 66 -157 0 -8 5 -16 11 -18 7 -2 12 -18 13 -36 0 -17 7
-34 14 -37 7 -3 11 -9 8 -14 -3 -5 1 -14 9 -21 8 -7 15 -18 15 -25 0 -7 8 -30
17 -51 9 -22 16 -42 15 -46 -1 -5 3 -8 8 -8 6 0 10 -5 10 -10 0 -6 7 -27 16
-48 10 -20 17 -41 18 -47 2 -17 31 -75 38 -75 3 0 5 -8 4 -17 -2 -10 4 -29 13
-42 8 -13 16 -32 18 -42 1 -9 11 -32 22 -51 11 -18 21 -42 23 -53 2 -11 5 -22
9 -25 10 -9 49 -108 49 -125 0 -9 5 -13 11 -9 6 4 10 -1 8 -12 -2 -11 9 -43
24 -71 15 -29 27 -54 26 -55 0 -2 5 -16 11 -33 7 -16 13 -34 14 -40 1 -5 8
-21 16 -35 8 -14 15 -27 16 -30 3 -14 18 -49 37 -90 12 -25 22 -49 23 -55 3
-25 17 -55 25 -55 5 0 9 -9 9 -20 0 -11 17 -38 38 -59 l38 -39 177 0 c174 1
177 0 197 -23 10 -13 22 -39 26 -56 3 -18 10 -33 14 -33 8 0 23 -34 25 -55 0
-5 8 -25 18 -42 9 -18 17 -35 17 -38 -1 -3 9 -25 21 -49 16 -33 32 -48 68 -64
44 -20 63 -21 469 -21 232 0 422 3 422 7 0 4 10 8 22 9 22 2 68 44 68 63 0 5
5 10 10 10 6 0 10 8 10 18 0 10 7 28 16 40 8 12 12 22 9 22 -3 0 0 10 7 23 7
12 13 24 13 27 0 3 9 20 18 37 10 18 17 34 17 35 1 17 14 48 21 48 5 0 8 3 7
8 -1 8 7 31 28 80 8 18 14 39 14 47 0 8 4 15 10 15 5 0 10 3 9 8 -2 13 13 52
21 52 4 0 7 10 6 23 0 12 4 21 10 20 7 -1 10 6 7 17 -3 11 -1 20 5 20 6 0 9 8
8 18 -2 9 0 19 3 22 10 8 86 179 96 218 4 12 11 22 16 22 6 0 8 3 5 8 -2 4 3
23 12 42 8 19 16 38 16 42 1 3 4 10 9 14 4 4 7 16 7 26 0 10 5 18 11 18 6 0 9
7 5 15 -3 8 -2 15 3 15 5 0 11 8 13 18 3 9 6 22 7 27 2 6 8 19 14 30 6 11 10
23 9 28 -1 4 3 7 8 7 6 0 10 6 8 13 -1 6 9 34 21 62 13 27 24 54 25 60 1 5 8
21 16 35 8 14 15 30 16 35 3 25 17 55 25 55 5 0 6 7 3 15 -4 8 -1 15 6 15 7 0
10 6 7 14 -3 8 1 20 8 26 8 7 14 15 13 18 -1 4 6 22 15 40 10 17 15 32 11 32
-3 0 4 16 15 36 12 19 19 39 16 44 -3 5 2 18 12 30 10 11 18 24 19 28 1 12 15
45 37 92 12 25 21 53 21 63 -1 9 1 17 5 17 3 0 12 15 19 33 8 17 18 43 25 57
6 14 11 27 11 30 1 3 6 12 11 20 5 8 10 20 10 25 1 6 7 24 14 40 7 17 14 35
15 40 1 6 8 21 16 35 8 14 15 27 15 30 2 6 22 57 38 93 7 15 15 27 19 27 4 0
5 9 3 20 -2 11 0 20 4 20 9 0 22 34 24 60 1 8 9 24 19 34 10 10 15 23 12 27
-2 4 0 10 6 14 5 3 10 15 10 26 0 11 11 36 23 57 13 20 23 45 21 55 -1 9 1 17
5 17 11 0 28 42 25 63 -1 9 4 17 12 17 9 0 13 4 9 9 -3 5 0 13 6 16 5 4 8 13
5 20 -2 7 2 16 10 19 9 3 12 10 9 16 -3 5 1 20 9 32 9 12 16 33 16 45 0 13 4
23 8 23 8 0 33 60 38 89 2 8 9 18 16 22 7 5 9 9 5 9 -5 0 1 13 12 29 11 15 17
31 14 35 -4 3 3 24 16 46 12 22 22 43 23 47 4 25 11 43 19 43 5 0 6 6 3 14 -3
7 2 16 10 19 9 4 13 13 10 20 -3 8 5 30 16 50 12 20 23 42 24 49 2 7 9 27 16
43 7 17 12 36 11 43 -1 6 2 12 7 12 5 0 13 10 17 23 4 12 8 24 10 27 2 5 7 20
22 58 3 9 5 20 5 25 -1 4 2 7 7 7 8 0 18 22 26 55 9 34 18 55 25 55 5 0 7 8 6
17 -2 10 3 24 11 31 7 8 11 17 8 22 -3 4 2 13 10 20 8 7 15 18 15 26 0 14 11
41 51 129 13 28 24 55 24 60 1 6 11 30 22 55 34 71 55 122 57 134 1 6 8 22 16
36 8 14 15 27 16 30 0 3 3 12 6 20 12 31 17 50 15 54 -1 2 6 12 15 23 10 10
19 29 21 41 3 20 25 53 28 41 1 -2 2 -94 4 -204 1 -113 6 -211 12 -225 17 -40
49 -62 95 -66 23 -2 44 -7 47 -11 3 -5 95 -8 204 -7 134 0 198 -3 199 -10 1
-6 2 -65 3 -131 2 -66 6 -129 10 -139 12 -27 66 -77 77 -70 5 3 14 1 21 -4 7
-6 93 -10 200 -10 124 0 192 -3 200 -11 7 -7 11 -459 12 -1583 1 -886 5 -1582
10 -1593 14 -32 58 -64 88 -65 15 0 27 -3 27 -7 0 -5 97 -8 215 -8 138 0 215
-3 216 -10 1 -5 2 -64 4 -130 1 -66 6 -129 10 -140 14 -31 47 -59 85 -72 43
-15 1090 -17 1090 -2 0 5 3 8 8 8 30 -5 94 47 99 82 2 13 7 26 11 29 4 3 7
791 6 1753 0 1575 1 1747 15 1748 9 0 220 0 469 1 248 0 452 4 452 8 0 5 8 7
18 6 25 -4 56 12 83 45 l24 29 0 500 c0 275 -3 500 -7 500 -5 0 -8 8 -8 18 0
9 -16 28 -35 40 -33 23 -39 24 -265 24 -205 0 -231 1 -239 16 -4 9 -8 67 -7
127 1 61 -3 123 -8 139 -9 28 -66 98 -66 81 0 -4 -6 -2 -14 4 -10 9 -422 12
-1634 12 -1776 1 -1644 5 -1702 -57 -24 -26 -25 -32 -25 -163 -1 -137 -6 -168
-28 -154 -7 5 -137 8 -289 9 -153 0 -280 2 -282 5 -7 6 22 83 33 87 5 2 7 12
4 22 -3 12 0 20 7 20 7 0 10 6 7 14 -3 8 -1 16 5 18 12 4 16 20 24 103 4 48 3
51 -32 73 l-36 23 -633 1 c-659 0 -652 0 -698 -42 -24 -23 -59 -89 -52 -99 2
-5 -2 -14 -10 -21 -8 -7 -12 -16 -10 -20 3 -5 -4 -25 -15 -45 -11 -19 -19 -39
-19 -43 2 -15 -14 -52 -23 -52 -5 0 -6 -9 -3 -20 4 -11 2 -20 -4 -20 -6 0 -11
-11 -11 -25 0 -14 -4 -25 -10 -25 -5 0 -9 -3 -8 -7 2 -10 -9 -39 -28 -79 -9
-17 -16 -37 -17 -45 -2 -8 -5 -18 -9 -24 -3 -5 -9 -25 -13 -42 -3 -18 -11 -33
-16 -33 -6 0 -9 -6 -8 -12 1 -7 -4 -26 -11 -43 -7 -16 -14 -33 -14 -37 -1 -3
-4 -10 -8 -14 -5 -4 -8 -15 -8 -25 0 -9 -6 -30 -14 -46 -19 -37 -48 -103 -51
-117 -2 -10 -6 -21 -22 -63 -3 -10 -7 -20 -8 -23 -1 -3 -8 -18 -15 -35 -7 -16
-14 -32 -14 -35 -1 -3 -5 -11 -10 -18 -4 -7 -5 -16 -2 -19 3 -4 -1 -14 -9 -23
-9 -10 -15 -21 -14 -26 1 -5 -4 -22 -11 -39 -7 -16 -14 -36 -16 -43 -1 -7 -9
-23 -17 -35 -8 -12 -13 -30 -11 -39 1 -10 -2 -18 -7 -18 -5 0 -9 -9 -9 -19 0
-11 -5 -23 -10 -26 -6 -4 -8 -11 -5 -16 4 -5 1 -9 -4 -9 -6 0 -11 -14 -11 -31
0 -19 -4 -28 -11 -23 -6 3 -10 -1 -9 -12 3 -26 -10 -64 -22 -64 -5 0 -7 -4 -4
-9 3 -4 -1 -16 -8 -27 -8 -10 -12 -24 -9 -31 3 -7 0 -13 -6 -13 -7 0 -11 -6
-10 -12 2 -14 -5 -35 -29 -88 -9 -19 -17 -39 -17 -45 -1 -5 -7 -21 -15 -35 -8
-14 -13 -33 -11 -42 1 -10 -2 -18 -7 -18 -5 0 -13 -16 -16 -35 -4 -19 -12 -35
-17 -35 -6 0 -9 -6 -6 -12 2 -7 -5 -28 -15 -46 -10 -18 -18 -41 -18 -52 0 -11
-5 -20 -11 -20 -5 0 -8 -4 -4 -9 3 -6 -3 -25 -14 -44 -11 -19 -17 -38 -14 -41
4 -3 2 -6 -4 -6 -10 0 -26 36 -24 53 1 4 -4 7 -9 7 -6 0 -10 11 -10 25 0 14
-5 25 -10 25 -6 0 -9 3 -8 8 1 4 -4 23 -12 42 -7 19 -14 40 -15 45 0 6 -9 25
-18 42 -10 18 -18 36 -18 40 -1 5 -6 19 -12 33 -6 14 -11 27 -12 30 -1 3 -6
20 -10 38 -4 18 -12 35 -16 38 -5 3 -7 10 -4 15 4 5 1 9 -4 9 -6 0 -11 9 -11
20 0 12 -7 32 -16 45 -9 13 -17 32 -19 42 -2 10 -4 19 -5 21 -2 1 -3 5 -5 10
-14 51 -19 62 -27 62 -6 0 -8 9 -5 21 3 12 0 22 -8 25 -8 3 -11 12 -8 20 3 8
0 14 -7 14 -7 0 -10 8 -7 20 3 11 1 20 -4 20 -5 0 -9 8 -9 18 0 10 -3 22 -6
25 -13 12 -56 122 -56 140 1 9 -3 17 -9 17 -5 0 -9 10 -9 23 0 12 -7 31 -15
41 -8 11 -15 28 -15 38 0 10 -4 18 -10 18 -5 0 -7 6 -4 14 3 8 1 17 -5 21 -6
3 -11 12 -11 20 0 7 -10 35 -22 62 -12 26 -21 56 -21 66 0 9 -3 17 -7 17 -4 0
-11 10 -15 23 -4 12 -8 24 -9 27 -1 3 -8 23 -15 45 -7 22 -17 44 -22 50 -5 5
-9 19 -9 32 0 13 -4 23 -9 23 -5 0 -13 15 -16 33 -4 17 -12 38 -19 46 -6 8 -9
15 -6 15 5 2 -18 63 -48 126 -18 37 -46 68 -78 86 -12 7 -85 11 -202 10 l-182
-1 0 23 c0 12 -4 22 -10 22 -5 0 -10 9 -10 20 0 11 -4 28 -10 38 -12 20 -32
72 -35 87 0 6 -7 24 -15 40 -7 17 -14 33 -14 37 -1 4 -12 26 -26 48 -16 26
-30 38 -39 35 -8 -3 -17 -1 -21 4 -4 7 -227 11 -634 13 l-628 3 -47 -25z
m1170 -258 c7 -2 17 -30 25 -64 5 -21 33 -19 -306 -22 -182 -1 -279 -6 -309
-14 -23 -8 -40 -16 -37 -19 3 -3 -2 -11 -10 -18 -17 -12 -30 -95 -15 -95 5 0
11 -12 14 -27 6 -36 30 -96 40 -104 5 -3 9 -9 9 -12 0 -20 12 -47 20 -47 5 0
6 -9 3 -20 -3 -11 -2 -20 3 -20 5 0 13 -10 17 -22 4 -13 8 -25 9 -28 2 -3 6
-17 10 -32 5 -16 12 -28 18 -28 5 0 7 -4 3 -9 -3 -5 1 -16 9 -24 8 -8 12 -17
9 -21 -3 -3 -1 -12 5 -19 7 -8 9 -17 5 -20 -3 -4 1 -9 10 -13 9 -3 13 -12 10
-20 -3 -8 0 -14 6 -14 7 0 11 -6 10 -12 -2 -20 12 -58 23 -58 5 0 8 -6 7 -12
-3 -19 12 -68 21 -68 8 0 23 -39 21 -53 -1 -4 5 -18 14 -30 8 -12 15 -32 15
-44 0 -13 4 -23 9 -23 8 0 24 -37 22 -52 -1 -5 3 -8 7 -8 5 0 9 -6 9 -12 0 -7
10 -35 23 -63 13 -27 23 -56 22 -62 -2 -7 2 -13 8 -13 5 0 10 -9 10 -20 0 -11
5 -20 11 -20 6 0 8 -9 4 -20 -3 -11 -3 -20 2 -20 11 0 48 -79 40 -86 -3 -4 0
-13 8 -21 8 -8 18 -26 21 -41 4 -15 16 -39 26 -54 11 -16 16 -28 12 -28 -3 0
-2 -6 3 -12 6 -7 9 -21 8 -30 -2 -10 0 -18 5 -18 8 0 40 -62 44 -84 1 -6 7
-21 14 -33 7 -12 12 -30 12 -40 0 -11 5 -24 12 -31 7 -7 9 -12 5 -12 -4 0 1
-9 10 -20 9 -10 18 -26 19 -34 1 -8 9 -29 17 -45 9 -17 18 -44 22 -61 4 -16
10 -30 15 -30 8 0 26 -58 22 -72 -1 -5 2 -8 7 -8 8 0 24 -37 22 -52 -1 -5 3
-8 9 -8 5 0 10 -7 10 -15 0 -8 6 -29 14 -47 14 -32 28 -68 30 -78 1 -3 8 -16
16 -30 8 -14 15 -27 15 -30 9 -38 19 -60 27 -60 5 0 7 -4 4 -9 -3 -5 5 -30 19
-55 14 -26 25 -56 25 -67 0 -10 5 -19 11 -19 6 0 9 -6 7 -12 -3 -7 3 -21 13
-31 10 -11 16 -28 14 -39 -2 -10 2 -21 10 -24 8 -3 11 -13 8 -21 -5 -12 -3
-14 7 -8 10 6 12 4 7 -7 -3 -9 1 -25 8 -36 8 -10 11 -22 8 -26 -3 -3 -1 -6 5
-6 7 0 12 -9 12 -19 0 -11 4 -22 10 -26 5 -3 7 -12 3 -20 -3 -8 -1 -15 5 -15
10 0 25 -37 23 -57 -1 -7 3 -13 9 -13 5 0 9 -3 8 -7 -1 -5 6 -23 16 -41 9 -19
15 -40 12 -48 -3 -8 0 -14 8 -14 7 0 13 -6 14 -12 2 -24 27 -88 34 -88 7 0 23
-59 20 -72 -1 -5 2 -8 7 -8 5 0 12 -13 16 -30 4 -16 11 -30 16 -30 5 0 9 -11
9 -24 0 -14 5 -28 10 -31 6 -4 8 -11 5 -16 -4 -5 -1 -9 4 -9 6 0 11 -9 11 -19
0 -11 5 -23 10 -26 6 -4 8 -11 5 -16 -4 -5 -2 -9 3 -9 9 0 26 -46 20 -52 -1
-2 10 -24 25 -49 15 -25 27 -55 27 -67 0 -12 4 -22 9 -22 5 0 12 -12 15 -27 4
-16 18 -50 31 -78 20 -42 32 -71 40 -95 5 -14 27 -67 35 -85 5 -11 19 -45 31
-75 13 -30 27 -58 32 -61 6 -4 7 -16 4 -28 -3 -14 0 -21 9 -21 8 0 13 -3 12
-7 0 -5 2 -16 5 -25 4 -10 10 -26 14 -35 3 -10 7 -20 8 -23 0 -3 9 -20 18 -37
10 -18 14 -33 10 -33 -4 0 -2 -5 5 -12 26 -26 13 -38 -41 -38 -49 0 -55 3 -67
28 -7 15 -14 32 -15 37 -5 27 -18 55 -25 55 -5 0 -12 15 -16 32 -8 40 -35 100
-49 110 -5 4 -7 8 -2 8 4 0 -2 18 -13 41 -12 23 -19 47 -16 55 3 8 1 14 -4 14
-6 0 -10 7 -10 15 0 8 -4 15 -9 15 -8 0 -24 37 -22 52 0 4 -8 22 -18 39 -11
17 -17 38 -14 45 3 8 1 14 -5 14 -9 0 -25 37 -23 53 1 4 -4 7 -10 7 -6 0 -9 7
-5 15 3 8 -1 20 -8 27 -7 7 -13 16 -14 20 -5 17 -12 39 -19 56 -3 9 -7 19 -7
22 -1 3 -8 16 -16 30 -8 14 -14 30 -15 35 0 6 -10 30 -22 55 -22 46 -36 80
-37 92 -1 3 -4 10 -8 14 -5 4 -8 18 -8 31 0 13 -4 23 -9 23 -8 0 -30 46 -37
80 -2 8 -7 16 -13 18 -5 2 -7 10 -4 18 3 8 1 14 -4 14 -5 0 -10 7 -10 15 0 19
-36 95 -45 95 -4 0 -5 7 -1 16 3 9 2 19 -3 23 -13 9 -38 62 -40 86 -1 10 -6
21 -12 23 -6 2 -8 10 -5 18 3 8 0 14 -6 14 -6 0 -11 7 -11 15 0 18 -32 85 -40
85 -4 0 -6 11 -5 25 2 14 0 25 -5 25 -9 0 -23 39 -21 58 1 7 -5 15 -13 18 -8
3 -12 12 -9 20 3 8 0 14 -7 14 -7 0 -10 7 -6 15 3 8 1 15 -4 15 -6 0 -10 9
-10 19 0 11 -5 23 -10 26 -6 4 -8 11 -5 16 4 5 3 9 -2 9 -11 0 -34 51 -27 61
3 5 0 9 -5 9 -6 0 -11 9 -11 20 0 11 -5 20 -11 20 -5 0 -8 4 -5 9 3 5 -6 30
-19 57 -14 27 -25 57 -25 67 0 9 -5 17 -11 17 -6 0 -9 6 -6 14 3 8 2 16 -4 18
-5 2 -11 14 -14 27 -2 14 -9 29 -15 35 -5 5 -10 18 -10 28 0 10 -4 18 -10 18
-5 0 -10 10 -10 23 0 12 -7 31 -15 41 -8 10 -12 22 -10 26 3 5 -2 11 -11 14
-8 3 -13 10 -9 15 3 5 -3 25 -13 43 -10 18 -17 39 -15 46 3 6 0 12 -7 12 -6 0
-9 4 -5 9 3 5 -2 16 -10 25 -9 8 -16 19 -17 23 -2 17 -10 40 -30 83 -12 25
-22 50 -23 55 -1 6 -7 24 -15 40 -7 17 -14 32 -15 35 -1 3 -8 19 -15 35 -7 17
-13 33 -12 38 1 4 -3 7 -8 7 -6 0 -10 11 -10 25 0 14 -5 25 -11 25 -6 0 -9 7
-5 15 3 9 0 15 -10 15 -8 0 -12 5 -8 11 7 11 -24 89 -40 100 -5 4 -6 14 -3 23
4 9 2 16 -3 16 -6 0 -10 7 -10 15 0 8 -5 15 -12 15 -6 0 -9 3 -6 6 4 3 0 17
-7 31 -8 15 -12 30 -9 35 3 4 0 8 -6 8 -7 0 -10 7 -6 15 3 9 0 15 -9 15 -8 0
-12 6 -9 13 2 7 -7 35 -21 61 -14 27 -24 55 -21 62 3 7 -2 15 -10 18 -9 3 -12
10 -9 16 3 5 1 10 -6 10 -6 0 -9 8 -6 20 3 11 2 20 -2 20 -4 0 -13 16 -21 35
-8 19 -18 35 -22 35 -5 0 -7 4 -3 9 6 10 -25 84 -37 89 -5 2 -8 13 -8 24 0 11
-10 37 -22 56 -14 22 -16 32 -7 27 8 -5 5 1 -5 13 -11 12 -16 22 -12 22 4 0
-2 14 -14 30 -12 17 -19 37 -16 45 3 8 1 15 -4 15 -8 0 -19 25 -24 54 -1 6
-10 26 -19 44 -10 17 -14 32 -10 32 5 0 2 4 -5 9 -7 4 -14 14 -16 22 -1 8 -7
24 -14 36 -7 12 -12 29 -12 37 0 9 -4 16 -10 16 -5 0 -10 8 -10 18 0 9 -7 30
-15 46 -8 15 -12 32 -9 37 3 5 1 9 -3 9 -9 0 -48 81 -44 94 1 4 -3 14 -9 20
-8 10 80 12 423 11 237 -1 435 -3 438 -3z m3329 -7 c-6 -7 -10 -17 -9 -21 3
-18 -14 -54 -25 -55 -6 0 -92 -2 -191 -3 -207 -2 -237 -10 -276 -72 -13 -21
-24 -43 -24 -49 -1 -9 -13 -40 -34 -90 -8 -19 -31 -77 -47 -120 -4 -11 -6 -26
-5 -32 1 -7 -2 -13 -7 -13 -8 0 -13 -11 -27 -62 -2 -5 -4 -10 -5 -13 -1 -3 -3
-10 -4 -15 0 -6 -6 -14 -11 -18 -6 -4 -11 -14 -11 -22 0 -8 -4 -23 -7 -32 -4
-10 -10 -26 -14 -35 -3 -10 -5 -21 -5 -25 1 -5 -2 -8 -8 -8 -5 0 -10 -11 -10
-25 0 -14 -4 -25 -10 -25 -6 0 -9 -3 -8 -7 1 -9 -9 -40 -23 -66 -5 -10 -7 -22
-4 -27 4 -6 -1 -13 -9 -16 -9 -3 -13 -10 -10 -15 3 -6 0 -16 -6 -24 -6 -8 -9
-19 -5 -25 3 -5 3 -10 -2 -10 -12 0 -36 -58 -29 -69 4 -5 2 -11 -4 -13 -6 -2
-12 -13 -14 -25 -3 -12 -10 -32 -17 -45 -7 -13 -12 -29 -11 -35 2 -7 -2 -13
-8 -13 -5 0 -10 -10 -10 -23 0 -13 -7 -32 -15 -43 -8 -10 -15 -25 -15 -32 0
-8 -6 -28 -14 -45 -21 -49 -30 -71 -31 -82 -1 -5 -8 -23 -17 -40 -8 -16 -13
-36 -11 -42 3 -7 0 -13 -5 -13 -10 0 -25 -37 -23 -57 1 -6 -3 -14 -9 -18 -5
-3 -10 -15 -10 -26 0 -10 -4 -19 -10 -19 -5 0 -7 -7 -4 -15 4 -8 1 -15 -5 -15
-6 0 -11 -9 -11 -19 0 -11 -8 -34 -17 -53 -28 -56 -30 -62 -27 -80 1 -10 -2
-18 -6 -18 -10 0 -25 -40 -22 -54 2 -5 -4 -16 -13 -26 -8 -9 -12 -20 -8 -23 3
-4 1 -7 -5 -7 -7 0 -11 -3 -10 -7 2 -13 -14 -67 -25 -80 -5 -7 -6 -13 -1 -13
4 0 3 -5 -4 -12 -7 -7 -12 -20 -12 -30 0 -10 -5 -18 -11 -18 -5 0 -8 -4 -4 -9
3 -5 1 -12 -5 -16 -5 -3 -10 -17 -10 -31 0 -13 -5 -24 -11 -24 -6 0 -9 -7 -5
-15 3 -8 -2 -21 -10 -30 -9 -8 -13 -15 -9 -15 3 0 3 -6 -2 -12 -4 -7 -8 -20
-10 -28 -1 -8 -6 -16 -12 -18 -5 -2 -7 -10 -4 -18 3 -8 0 -14 -7 -14 -7 0 -10
-6 -7 -14 3 -8 0 -22 -8 -32 -7 -10 -11 -24 -8 -31 3 -7 0 -13 -7 -13 -7 0
-10 -6 -7 -14 3 -8 1 -16 -4 -18 -6 -2 -11 -10 -13 -18 -2 -8 -9 -28 -16 -45
-7 -16 -12 -36 -11 -42 1 -7 -3 -13 -9 -13 -7 0 -10 -6 -7 -12 2 -7 -4 -29
-13 -48 -15 -29 -26 -54 -35 -80 -1 -3 -5 -13 -8 -22 -17 -44 -20 -54 -23 -68
-2 -8 -7 -16 -13 -18 -5 -2 -8 -9 -5 -15 7 -18 -21 -53 -30 -39 -4 7 -2 12 4
12 7 0 7 7 -2 23 -7 12 -13 24 -13 27 -1 3 -8 19 -15 35 -7 17 -14 32 -15 35
-10 44 -17 60 -25 60 -5 0 -7 9 -5 20 2 11 0 20 -6 20 -5 0 -9 9 -9 20 0 11
-9 35 -20 55 -11 19 -17 35 -14 35 4 0 1 7 -6 15 -7 8 -9 15 -4 15 4 0 3 5 -4
12 -7 7 -12 20 -12 30 0 10 -5 18 -11 18 -6 0 -9 7 -6 15 4 8 2 17 -3 20 -6 4
-10 15 -10 26 0 10 -4 19 -8 19 -13 0 -10 33 4 55 8 11 14 30 14 42 0 13 5 23
11 23 6 0 9 6 6 14 -3 8 1 17 10 20 8 4 13 13 9 21 -3 8 -1 17 5 20 5 4 7 10
5 14 -3 4 4 22 15 39 10 18 19 39 19 46 0 7 11 39 25 70 14 31 26 59 26 64 8
31 12 42 19 42 5 0 7 8 5 18 -1 9 5 28 15 42 9 14 15 30 13 37 -2 6 1 14 6 18
6 3 11 17 11 31 0 13 5 24 10 24 6 0 9 3 8 8 -1 4 3 17 10 30 7 12 10 22 6 22
-3 0 1 11 10 25 9 13 16 33 16 45 0 11 4 20 8 20 5 0 9 6 9 13 0 14 44 128 53
137 3 3 7 14 8 25 2 11 13 40 24 65 12 25 20 53 19 63 -1 9 2 17 7 17 8 0 21
31 23 57 0 5 5 14 11 20 6 7 8 19 5 27 -3 8 1 17 9 20 9 3 12 10 9 16 -3 5 -1
10 4 10 6 0 11 11 11 25 0 14 4 25 10 25 5 0 6 7 3 17 -5 12 -3 14 7 8 10 -6
12 -2 8 18 -3 15 -1 28 4 29 5 2 11 10 13 18 8 37 18 60 26 60 4 0 6 9 4 20
-2 11 0 20 6 20 5 0 9 7 9 15 0 8 6 29 14 47 8 18 21 49 30 70 9 20 16 43 16
51 0 9 5 19 10 22 6 4 8 10 6 14 -3 4 4 22 15 40 11 19 18 40 15 47 -3 8 -2
14 2 14 9 0 28 44 38 85 4 17 10 35 14 40 4 6 17 39 30 75 12 36 26 70 31 76
5 7 9 16 7 20 -1 5 6 24 15 42 10 17 15 32 11 32 -4 0 -2 6 3 13 6 6 13 24 17
40 4 15 14 35 24 45 17 17 50 18 445 19 340 0 425 -2 417 -12z m4056 -14 c9
-32 5 -64 -9 -73 -5 -3 -575 -6 -1265 -7 -920 0 -1263 -3 -1283 -11 -17 -8
-35 -28 -47 -53 -16 -37 -18 -65 -17 -245 2 -235 7 -225 -99 -223 -33 1 -82 2
-107 3 -25 1 -50 -2 -56 -5 -27 -17 -53 73 -31 108 9 16 8 275 -2 275 -5 0 -7
10 -4 23 12 52 16 187 5 187 -14 0 -14 23 -1 36 7 7 480 11 1460 11 l1449 0 7
-26z m-7246 -341 c3 -1 7 -2 10 -2 3 0 6 -9 6 -21 1 -22 24 -87 34 -97 6 -6
12 -28 14 -50 0 -8 5 -18 9 -21 5 -3 10 -12 11 -20 2 -8 9 -27 16 -44 18 -40
16 -35 25 -72 4 -18 12 -33 17 -33 5 0 7 -4 3 -9 -3 -5 -1 -12 5 -16 5 -3 10
-17 10 -31 0 -13 4 -24 8 -24 8 0 34 -72 32 -85 -1 -4 6 -17 14 -31 9 -13 14
-24 10 -24 -4 0 -1 -7 6 -15 7 -8 9 -15 5 -15 -4 0 -1 -10 7 -22 8 -13 21 -41
27 -63 7 -22 20 -56 29 -75 9 -19 16 -39 17 -45 0 -5 8 -25 18 -42 10 -18 15
-33 11 -33 -4 0 -1 -7 6 -15 7 -8 10 -15 6 -15 -4 0 3 -18 14 -41 12 -23 19
-47 16 -54 -2 -7 2 -16 10 -19 9 -3 12 -10 9 -16 -3 -5 -2 -10 3 -10 8 0 22
-40 27 -75 0 -5 7 -21 15 -35 8 -14 15 -29 15 -35 1 -5 5 -19 9 -30 17 -42 19
-50 18 -57 -1 -5 3 -8 8 -8 6 0 10 -7 10 -16 0 -14 18 -63 39 -104 5 -8 7 -23
5 -32 -1 -10 2 -18 6 -18 8 0 20 -26 20 -43 0 -4 8 -22 17 -40 10 -17 18 -36
19 -42 2 -15 14 -47 30 -78 7 -16 14 -35 14 -44 0 -8 6 -27 14 -41 19 -36 29
-63 32 -87 1 -10 6 -21 12 -23 6 -2 8 -10 5 -19 -4 -11 -2 -14 5 -9 8 5 12 -2
12 -22 0 -16 3 -32 8 -36 4 -4 7 -11 7 -14 1 -4 8 -20 17 -37 8 -16 13 -36 11
-42 -3 -7 0 -13 6 -13 6 0 11 -7 11 -15 0 -8 5 -15 11 -15 5 0 7 -5 3 -11 -3
-6 -2 -21 4 -32 9 -19 20 -46 27 -67 1 -3 5 -13 8 -22 4 -10 10 -26 14 -35 3
-10 5 -21 5 -25 -1 -5 2 -8 8 -8 5 0 10 -9 10 -19 0 -11 5 -23 11 -27 6 -3 9
-15 6 -25 -3 -11 -2 -19 3 -19 7 0 22 -33 24 -57 1 -6 5 -15 9 -19 4 -4 7 -16
7 -26 0 -10 5 -18 11 -18 6 0 9 -6 7 -12 -11 -32 110 -117 159 -112 41 3 56
18 86 85 41 91 47 110 42 120 -4 5 -2 9 3 9 5 0 13 10 17 23 4 12 9 24 10 27
1 3 6 15 10 28 4 12 12 22 17 22 6 0 8 -7 4 -15 -3 -8 -1 -15 4 -15 6 0 10 -9
10 -20 0 -11 5 -20 10 -20 6 0 10 -6 9 -12 -4 -21 13 -68 23 -68 6 0 8 -9 5
-19 -3 -12 1 -22 9 -25 8 -3 13 -9 12 -13 -4 -14 26 -103 35 -103 4 0 6 -4 3
-9 -3 -4 1 -16 8 -27 8 -10 12 -24 9 -31 -3 -7 0 -13 7 -13 6 0 10 -6 8 -12
-3 -7 1 -19 8 -26 7 -7 11 -19 8 -27 -4 -8 -2 -15 4 -15 5 0 13 -16 16 -35 4
-19 12 -35 18 -35 5 0 8 -7 4 -15 -7 -18 92 -128 110 -121 7 3 18 -2 24 -9 10
-13 16 -12 39 0 41 23 71 52 71 69 0 9 4 16 9 16 5 0 13 15 16 33 4 17 12 38
17 45 6 6 8 12 4 12 -4 0 3 18 14 40 11 22 18 40 15 40 -2 0 4 15 14 33 10 17
21 46 26 62 5 17 9 33 10 38 2 4 4 10 5 15 1 4 2 10 1 15 0 4 5 7 13 7 8 0 12
9 11 25 -2 14 1 25 5 25 5 0 12 15 15 33 4 17 12 38 17 45 6 6 8 12 4 12 -4 0
0 10 8 23 8 12 15 24 15 27 0 9 12 44 26 75 11 25 23 58 30 85 1 3 8 19 15 35
8 17 14 35 15 40 1 6 9 25 18 43 10 18 15 37 12 42 -3 6 -1 10 4 10 6 0 11 7
11 15 0 15 21 68 46 117 8 14 14 36 14 47 0 12 5 21 10 21 6 0 10 6 8 13 -1 6
6 29 16 49 10 20 15 42 11 47 -3 6 -1 11 4 11 6 0 11 7 11 15 0 8 5 15 11 15
6 0 9 7 6 15 -4 8 -2 17 3 20 6 4 10 15 10 27 0 11 8 32 19 46 10 15 17 35 16
45 -2 9 0 17 5 17 7 0 18 26 24 55 3 13 13 41 32 83 8 18 12 38 9 43 -4 5 -2
9 3 9 5 0 14 12 20 28 6 15 13 36 18 47 4 11 8 25 9 30 6 28 18 55 26 55 4 0
6 9 4 20 -2 11 0 20 6 20 5 0 9 9 9 19 0 11 7 32 14 48 15 28 29 62 30 75 1 3
4 10 9 14 4 4 7 16 7 26 0 10 5 18 11 18 6 0 8 7 5 16 -4 9 0 24 9 33 8 10 16
26 18 37 2 10 10 33 17 49 7 17 14 33 14 37 1 3 4 10 9 14 4 4 7 17 7 29 0 11
5 26 12 33 7 7 9 12 4 12 -4 0 -1 7 8 15 8 9 13 21 10 28 -2 7 3 22 13 32 10
11 18 29 18 40 -1 11 10 40 23 65 13 25 21 53 19 62 -3 9 1 19 9 22 7 3 11 12
8 21 -3 8 -2 15 4 15 10 0 25 37 23 53 -1 5 7 23 17 40 11 18 18 37 15 44 -2
6 1 14 6 18 6 3 11 15 11 26 0 10 4 19 10 19 5 0 9 3 8 8 -1 4 4 23 11 42 8
19 15 37 16 40 1 3 5 13 8 23 4 9 10 25 14 35 3 9 5 20 5 25 -2 8 1 8 96 11
34 1 62 -2 62 -6 0 -5 -5 -8 -11 -8 -6 0 -9 -9 -6 -20 3 -11 2 -20 -2 -20 -6
0 -43 -75 -46 -95 -4 -22 -30 -75 -37 -75 -4 0 -8 -11 -8 -24 0 -14 -5 -28
-10 -31 -6 -4 -8 -11 -5 -16 4 -5 1 -9 -4 -9 -6 0 -11 -11 -11 -25 0 -14 -4
-25 -10 -25 -5 0 -10 -3 -9 -7 2 -16 -14 -53 -23 -53 -5 0 -6 -5 -3 -10 4 -6
-2 -25 -13 -43 -10 -18 -18 -40 -16 -50 1 -9 -2 -17 -7 -17 -5 0 -9 -7 -9 -15
0 -8 -5 -15 -11 -15 -6 0 -9 -6 -6 -14 3 -8 -1 -17 -9 -20 -9 -3 -12 -11 -9
-16 4 -6 1 -17 -5 -25 -7 -8 -9 -15 -5 -15 5 0 0 -9 -9 -19 -10 -11 -19 -31
-20 -45 0 -14 -3 -26 -6 -26 -3 0 -11 -15 -18 -32 -7 -18 -22 -50 -32 -70 -11
-20 -20 -43 -20 -50 0 -8 -9 -31 -20 -52 -10 -22 -17 -43 -14 -47 3 -5 1 -9
-4 -9 -5 0 -13 -10 -17 -22 -4 -13 -8 -25 -9 -28 -17 -38 -32 -73 -46 -110
-36 -92 -65 -155 -73 -161 -5 -3 -8 -9 -8 -13 1 -9 -8 -36 -25 -74 -8 -18 -14
-39 -14 -47 0 -8 -5 -15 -11 -15 -6 0 -9 -7 -5 -15 3 -8 1 -15 -4 -15 -6 0
-10 -7 -10 -15 0 -8 -4 -15 -9 -15 -5 0 -8 -8 -6 -17 1 -10 -6 -30 -16 -44
-10 -14 -21 -38 -25 -55 -4 -16 -11 -35 -17 -41 -5 -7 -6 -13 -1 -13 5 0 3 -4
-4 -9 -7 -4 -14 -18 -15 -29 -1 -12 -4 -22 -8 -22 -4 0 -10 -13 -14 -30 -4
-16 -11 -30 -16 -30 -5 0 -9 -9 -9 -20 0 -11 -4 -28 -10 -38 -10 -16 -25 -57
-30 -77 -1 -5 -10 -21 -20 -35 -9 -14 -16 -33 -15 -42 2 -10 -1 -18 -5 -18 -5
0 -12 -10 -16 -22 -3 -12 -13 -37 -22 -57 -9 -20 -16 -39 -16 -43 -1 -3 -4
-10 -9 -14 -4 -4 -7 -16 -7 -26 0 -10 -4 -18 -10 -18 -5 0 -9 -3 -8 -7 1 -5
-5 -21 -12 -38 -8 -16 -15 -34 -16 -40 -6 -31 -18 -55 -26 -55 -6 0 -8 -9 -5
-20 3 -11 2 -20 -3 -20 -8 0 -23 -38 -21 -52 1 -5 -4 -8 -9 -8 -6 0 -10 -11
-10 -25 0 -14 -4 -25 -10 -25 -5 0 -10 -3 -9 -7 2 -16 -14 -53 -23 -53 -6 0
-8 -6 -5 -14 3 -7 -1 -23 -8 -34 -8 -10 -11 -22 -8 -26 3 -3 1 -6 -6 -6 -7 0
-11 -6 -8 -14 3 -7 0 -19 -6 -25 -7 -7 -12 -15 -12 -19 -1 -4 -7 -18 -15 -32
-8 -14 -15 -29 -16 -35 -4 -26 -17 -55 -26 -55 -5 0 -7 -4 -3 -9 3 -5 1 -12
-4 -15 -5 -3 -12 -22 -15 -41 -4 -19 -11 -35 -16 -35 -6 0 -10 -11 -10 -25 0
-14 -4 -25 -10 -25 -5 0 -7 -7 -4 -15 4 -8 2 -15 -4 -15 -8 0 -23 -37 -24 -60
0 -3 -9 -17 -19 -31 -10 -14 -16 -28 -14 -31 3 -2 -6 -28 -20 -56 -14 -29 -25
-59 -25 -67 0 -8 -4 -15 -10 -15 -5 0 -10 -6 -10 -12 0 -7 -7 -26 -15 -42 -8
-15 -13 -32 -10 -36 3 -4 -2 -13 -10 -20 -8 -7 -12 -16 -9 -21 3 -5 0 -9 -6
-9 -6 0 -10 -6 -9 -12 2 -19 -12 -58 -21 -58 -5 0 -12 -15 -15 -32 -4 -18 -12
-39 -17 -45 -6 -7 -8 -13 -4 -13 4 0 -1 -11 -10 -25 -9 -14 -14 -25 -11 -25 3
0 -5 -20 -18 -43 -12 -24 -26 -58 -30 -75 -3 -18 -10 -32 -13 -32 -4 0 -16
-24 -26 -52 -10 -29 -25 -57 -32 -63 -8 -6 -56 -9 -113 -7 l-98 3 -17 35 c-9
20 -14 39 -11 44 3 4 -2 11 -10 14 -8 3 -15 9 -14 13 2 11 -4 35 -16 71 -4 12
-11 22 -15 22 -6 0 -15 21 -25 60 0 3 -8 19 -18 36 -9 17 -13 35 -9 38 3 4 2
10 -3 14 -10 6 -38 63 -36 70 1 1 -5 15 -13 31 -9 16 -12 31 -9 35 4 3 1 6 -5
6 -7 0 -12 7 -12 15 0 8 -5 15 -11 15 -5 0 -7 5 -4 10 4 6 1 17 -5 25 -6 8 -9
19 -5 25 3 5 1 10 -4 10 -6 0 -11 7 -11 15 0 8 -9 30 -19 49 -11 19 -17 37
-14 40 4 3 1 6 -5 6 -7 0 -12 7 -12 15 0 8 -7 31 -16 52 -31 70 -49 108 -54
113 -3 3 -6 12 -7 20 -1 27 -15 60 -24 60 -5 0 -8 3 -8 8 1 4 -4 23 -12 42 -7
19 -12 38 -11 43 1 4 -2 7 -8 7 -5 0 -10 7 -10 15 0 9 -11 38 -25 66 -14 27
-23 54 -20 59 4 6 1 10 -4 10 -6 0 -11 9 -11 21 0 11 -4 18 -9 15 -8 -5 -26
48 -22 67 0 4 -4 7 -10 7 -5 0 -7 5 -4 10 3 6 0 13 -9 16 -8 3 -13 11 -10 18
2 6 -7 34 -21 61 -14 28 -25 54 -25 58 0 9 -12 37 -51 122 -12 28 -22 56 -20
63 1 6 -3 12 -9 12 -5 0 -10 9 -10 20 0 11 -5 20 -10 20 -6 0 -9 3 -8 8 0 4
-1 14 -4 22 -4 8 -9 24 -14 35 -4 11 -6 23 -6 28 1 4 -2 7 -7 7 -8 0 -25 56
-22 73 0 4 -3 7 -9 7 -5 0 -10 7 -10 15 0 8 -4 15 -9 15 -6 0 -8 9 -6 20 2 11
-3 24 -13 30 -9 5 -13 10 -8 10 5 0 3 7 -4 15 -6 8 -8 20 -4 26 4 8 3 9 -4 5
-8 -5 -12 2 -12 18 0 14 -4 26 -9 26 -5 0 -13 14 -16 32 -4 17 -18 51 -31 76
-13 24 -23 47 -23 50 2 15 -14 52 -22 52 -5 0 -9 11 -9 25 0 14 -4 25 -10 25
-5 0 -7 7 -4 15 4 8 2 15 -4 15 -5 0 -13 12 -18 28 -10 37 -8 31 -32 82 -12
25 -22 51 -22 58 0 6 -4 12 -10 12 -5 0 -7 7 -4 15 4 8 1 15 -5 15 -6 0 -11 9
-11 19 0 18 -28 80 -41 91 -3 3 -5 13 -3 23 1 9 -2 17 -7 17 -5 0 -9 7 -9 15
0 8 -4 15 -10 15 -5 0 -7 6 -4 14 3 8 1 17 -5 21 -6 3 -11 15 -11 26 0 10 -4
19 -10 19 -5 0 -9 3 -8 8 0 4 -2 15 -5 25 -12 30 -17 47 -14 51 1 2 -6 13 -16
23 -9 11 -14 23 -10 26 3 4 2 7 -4 7 -5 0 -10 6 -10 13 0 6 -7 28 -15 47 -8
19 -21 49 -28 65 -8 17 -13 33 -12 38 1 4 -2 7 -8 7 -5 0 -10 9 -10 20 0 10
-11 40 -25 64 -14 25 -25 49 -24 53 2 16 -14 53 -23 53 -5 0 -8 6 -5 13 2 6
-9 36 -24 65 -16 28 -26 52 -24 52 3 0 -2 15 -12 33 -9 17 -16 37 -15 43 1 7
-4 14 -13 17 -8 4 -12 13 -9 22 4 8 1 15 -6 15 -7 0 -10 7 -6 15 3 8 0 15 -6
15 -6 0 -8 3 -5 6 6 6 -18 59 -33 74 -5 5 -9 27 -12 58 -1 6 -4 12 -7 12 -11
0 -33 59 -26 70 3 5 1 10 -4 10 -6 0 -11 7 -11 15 0 8 -6 15 -12 16 -7 1 -3 4
10 7 20 6 419 7 432 2z m424 -9 c9 -8 16 -17 16 -22 0 -4 5 -20 12 -36 6 -15
12 -30 12 -33 1 -3 5 -11 9 -17 5 -7 6 -17 3 -22 -3 -5 1 -14 9 -21 8 -7 12
-16 10 -20 -3 -5 4 -25 15 -44 11 -20 19 -37 19 -39 0 -1 5 -15 12 -32 7 -16
13 -37 15 -46 2 -9 9 -29 15 -45 7 -16 13 -32 13 -36 1 -3 4 -10 9 -14 4 -4 7
-14 7 -23 0 -9 9 -27 19 -41 14 -18 17 -29 10 -42 -7 -14 -6 -18 6 -18 9 0 15
-6 14 -12 -1 -7 4 -26 11 -43 7 -16 14 -32 14 -35 1 -3 8 -24 18 -45 26 -64
31 -79 29 -92 -1 -7 2 -13 7 -13 8 0 20 -28 26 -60 1 -3 5 -11 9 -17 5 -7 6
-17 3 -22 -3 -5 1 -12 10 -15 8 -3 13 -10 9 -16 -3 -5 -1 -17 4 -27 14 -26 24
-57 23 -65 -1 -5 2 -8 7 -8 9 0 25 -56 22 -77 -1 -7 2 -13 7 -13 9 0 22 -30
27 -61 1 -8 10 -27 20 -42 9 -15 14 -27 11 -27 -4 0 1 -15 11 -32 9 -18 18
-35 18 -38 9 -41 28 -90 35 -95 6 -3 10 -17 10 -30 0 -13 5 -27 10 -30 6 -4 9
-12 8 -18 -1 -7 4 -23 12 -37 8 -14 15 -29 16 -35 1 -5 8 -23 15 -40 7 -16 14
-34 14 -40 2 -10 18 -54 34 -90 5 -11 14 -35 21 -52 7 -18 17 -33 22 -33 5 0
6 -9 3 -20 -3 -11 -2 -20 3 -20 5 0 9 -6 9 -12 1 -7 4 -28 8 -45 5 -22 4 -33
-4 -33 -6 0 -10 -3 -10 -7 1 -5 0 -11 -1 -15 -6 -19 -8 -25 -15 -55 -4 -18
-12 -33 -17 -33 -5 0 -7 -4 -3 -9 3 -5 1 -12 -3 -15 -12 -7 -36 39 -28 53 4 6
2 11 -3 11 -6 0 -11 11 -11 25 0 14 -4 25 -9 25 -5 0 -12 12 -17 28 -4 15 -8
29 -10 32 -1 3 -5 15 -9 28 -4 12 -11 22 -15 22 -5 0 -6 9 -3 20 3 11 0 20 -6
20 -6 0 -11 11 -11 24 0 14 -4 28 -10 31 -5 3 -15 25 -22 48 -6 23 -12 44 -13
47 -3 8 -16 40 -40 95 -12 28 -20 56 -18 63 3 6 0 12 -5 12 -5 0 -12 10 -15
23 -8 35 -31 91 -40 98 -5 3 -9 10 -9 15 -1 11 -4 23 -14 49 -4 11 -9 28 -10
38 -2 10 -11 29 -20 42 -9 14 -14 25 -11 25 2 0 -2 17 -10 38 -7 20 -16 45
-20 55 -3 9 -9 17 -13 17 -5 0 -6 9 -3 20 3 11 1 20 -5 20 -11 0 -25 37 -22
63 1 9 -4 17 -9 17 -6 0 -11 8 -11 18 0 10 -5 23 -12 30 -7 7 -8 12 -4 12 5 0
3 7 -4 15 -7 8 -10 15 -6 15 3 0 -3 16 -14 35 -11 20 -20 42 -20 51 0 8 -9 34
-21 57 -11 23 -22 49 -24 57 -2 8 -9 29 -16 45 -7 17 -13 33 -13 37 -1 3 -4
10 -8 14 -5 4 -8 18 -8 31 0 12 -5 23 -10 23 -6 0 -9 3 -8 8 0 4 -1 14 -4 22
-4 8 -9 24 -14 35 -4 11 -6 23 -6 28 1 4 -3 7 -9 7 -6 0 -9 9 -6 20 3 11 2 20
-2 20 -7 0 -46 101 -43 113 1 4 -3 7 -9 7 -5 0 -8 4 -5 8 3 5 -2 22 -10 38 -9
16 -15 29 -14 29 3 0 -13 41 -28 75 -17 36 -19 43 -25 72 -2 10 -6 21 -10 24
-4 4 -7 14 -7 23 0 13 11 16 54 15 30 0 62 -6 70 -13z m3332 6 c4 -3 4 -13 1
-22 -4 -8 -6 -17 -7 -20 0 -3 -7 -20 -17 -38 -9 -17 -17 -35 -18 -39 0 -3 -3
-10 -7 -14 -5 -4 -8 -16 -8 -26 0 -10 -5 -18 -11 -18 -5 0 -8 -4 -4 -9 3 -5 1
-12 -5 -16 -5 -3 -10 -14 -10 -23 0 -10 -11 -38 -25 -64 -14 -27 -26 -51 -26
-55 -1 -5 -6 -19 -11 -33 -5 -14 -9 -26 -9 -28 1 -1 -10 -24 -24 -52 -14 -27
-25 -56 -25 -65 0 -8 -5 -15 -11 -15 -6 0 -9 -7 -5 -15 3 -8 -1 -18 -9 -22 -7
-5 -14 -12 -16 -18 -2 -14 -8 -32 -16 -52 -3 -10 -7 -20 -8 -23 -9 -26 -20
-52 -38 -90 -12 -25 -20 -49 -19 -53 1 -5 -7 -21 -17 -36 -11 -16 -18 -30 -16
-33 3 -3 -1 -18 -10 -34 -8 -16 -15 -34 -15 -40 0 -7 -6 -14 -14 -17 -9 -4
-12 -14 -9 -26 3 -12 1 -21 -4 -21 -7 0 -30 -48 -38 -80 -1 -3 -8 -18 -15 -35
-8 -16 -14 -34 -15 -40 0 -5 -7 -21 -15 -35 -8 -14 -15 -27 -16 -30 0 -3 -4
-13 -7 -22 -11 -28 -16 -48 -16 -54 0 -4 -3 -10 -8 -13 -13 -9 -34 -61 -28
-71 3 -4 -2 -11 -11 -14 -8 -3 -13 -10 -9 -15 3 -5 0 -13 -6 -16 -5 -4 -8 -13
-5 -21 3 -8 2 -14 -2 -14 -7 0 -14 -14 -52 -110 -12 -30 -29 -69 -36 -87 -8
-17 -14 -36 -14 -42 0 -6 -4 -11 -10 -11 -5 0 -10 -8 -10 -18 0 -9 -11 -37
-24 -62 -13 -25 -21 -51 -19 -57 3 -7 0 -13 -5 -13 -9 0 -27 -47 -24 -62 1 -5
-2 -8 -8 -8 -5 0 -10 -9 -10 -20 0 -11 -5 -20 -10 -20 -6 0 -9 -3 -8 -7 1 -9
-6 -30 -28 -80 -8 -17 -14 -38 -14 -47 0 -9 -5 -16 -11 -16 -6 0 -9 -7 -5 -15
3 -8 1 -15 -4 -15 -7 0 -21 -27 -25 -50 0 -3 -11 -27 -23 -54 -12 -27 -22 -55
-22 -62 0 -8 -5 -14 -11 -14 -6 0 -9 -7 -5 -15 3 -8 1 -15 -4 -15 -6 0 -10 -7
-10 -15 0 -9 -10 -35 -22 -58 -13 -23 -23 -46 -24 -52 0 -5 -6 -21 -11 -35 -6
-14 -11 -29 -13 -35 -1 -5 -8 -14 -16 -18 -8 -5 -12 -13 -8 -18 3 -5 0 -16 -6
-24 -6 -8 -9 -19 -5 -25 3 -5 3 -10 -2 -10 -4 0 -14 -15 -21 -32 -8 -18 -19
-44 -25 -58 -6 -14 -11 -30 -12 -36 0 -6 -6 -18 -13 -26 -6 -8 -9 -18 -5 -21
3 -4 1 -7 -5 -7 -7 0 -12 -7 -12 -16 0 -8 -10 -36 -21 -62 -12 -25 -22 -51
-23 -58 -1 -7 -8 -19 -15 -27 -7 -9 -14 -22 -15 -29 -4 -17 -14 -47 -30 -83
-8 -16 -22 -50 -32 -75 -10 -25 -23 -48 -28 -51 -5 -4 -6 -14 -3 -22 3 -9 3
-17 -1 -19 -11 -5 -46 -82 -43 -95 1 -7 -4 -13 -10 -13 -7 0 -9 -3 -6 -7 4 -3
1 -13 -5 -21 -7 -8 -13 -20 -14 -26 -1 -22 -26 -76 -35 -76 -5 0 -8 -3 -8 -7
4 -25 -3 -54 -16 -67 -8 -8 -15 -20 -15 -26 0 -6 -10 -32 -21 -58 -12 -25 -22
-51 -23 -57 -1 -5 -8 -21 -16 -35 -8 -14 -15 -27 -16 -30 0 -3 -4 -13 -7 -22
-4 -10 -10 -26 -14 -35 -3 -10 -5 -21 -5 -25 1 -5 -3 -8 -8 -8 -6 0 -10 -11
-10 -25 0 -14 -4 -25 -10 -25 -5 0 -10 -3 -9 -7 2 -16 -14 -53 -23 -53 -5 0
-7 -3 -4 -8 2 -4 -3 -23 -11 -42 -9 -19 -15 -38 -15 -42 1 -5 -3 -8 -8 -8 -6
0 -10 -11 -10 -25 0 -14 -4 -25 -10 -25 -5 0 -9 -3 -8 -7 0 -5 -2 -17 -6 -28
-4 -11 -12 -31 -17 -45 l-9 -25 -317 0 -318 0 -17 45 c-9 25 -17 48 -17 53 -1
4 55 7 124 7 69 0 125 3 125 8 0 4 10 12 22 17 12 6 26 19 32 30 6 11 15 23
20 26 5 4 9 21 10 38 0 17 7 33 14 36 7 3 10 9 7 15 -3 5 -2 10 3 10 9 0 22
29 26 55 1 6 9 26 18 45 36 77 58 133 58 146 0 8 5 14 11 14 6 0 9 7 5 15 -3
8 -2 15 2 15 8 0 28 43 38 83 3 15 10 27 15 27 5 0 8 3 6 8 -4 12 36 102 46
102 4 0 6 4 2 9 -5 9 23 78 62 154 8 15 11 27 8 27 -3 0 0 10 7 23 7 12 13 24
13 27 0 3 8 19 17 35 8 17 13 36 11 43 -3 6 0 12 6 12 6 0 11 7 11 15 0 8 5
15 11 15 6 0 9 7 6 15 -4 8 -2 17 3 20 6 4 10 15 10 26 0 10 5 19 11 19 5 0 8
4 4 9 -3 5 -1 12 5 16 5 3 10 15 10 26 0 10 5 19 11 19 5 0 8 4 4 9 -3 5 -1
12 5 16 5 3 10 17 10 31 0 13 4 24 8 24 7 0 31 55 32 73 0 4 12 29 26 57 14
27 27 55 28 62 3 14 16 45 50 118 12 25 22 50 22 55 4 26 17 55 25 55 5 0 9 9
9 20 0 11 9 37 21 59 11 22 22 46 23 53 1 7 8 24 16 38 8 14 15 27 16 30 3 15
17 49 30 73 7 16 14 37 14 48 0 10 5 19 10 19 6 0 10 3 9 8 -2 14 13 52 22 52
4 0 6 9 4 20 -2 11 0 20 4 20 8 0 16 18 26 55 1 6 13 33 26 60 13 28 24 53 25
58 1 4 2 9 3 12 0 3 1 7 1 10 -1 3 6 13 15 21 8 9 13 20 10 25 -4 5 -2 9 3 9
5 0 9 6 9 13 0 12 23 70 49 120 8 16 12 32 9 37 -3 4 2 11 11 14 8 3 13 10 9
15 -3 5 3 25 14 44 11 19 17 38 13 42 -3 3 -2 9 3 13 15 10 45 71 45 90 0 9 9
31 20 47 11 17 20 40 20 53 0 12 4 22 9 22 7 0 16 20 26 60 0 3 8 19 18 36 9
17 13 34 10 38 -4 3 -1 6 5 6 7 0 12 9 12 19 0 11 5 23 10 26 6 4 8 10 5 15
-3 5 -1 11 5 15 5 3 10 15 10 26 0 10 5 19 11 19 6 0 9 7 5 15 -3 8 -1 15 4
15 6 0 10 7 10 15 0 8 4 15 9 15 4 0 8 8 8 18 0 25 14 62 24 62 4 0 11 16 15
35 3 19 10 38 15 41 5 3 7 10 4 15 -4 5 -1 9 4 9 6 0 11 7 11 15 0 18 32 89
43 93 4 2 7 13 7 24 0 11 6 32 14 46 8 15 22 46 31 70 10 23 22 42 27 42 5 0
6 5 3 10 -7 12 16 70 28 70 5 0 6 4 2 9 -3 5 -1 12 5 16 5 3 10 16 10 29 0 12
5 27 10 32 6 6 13 21 15 34 2 13 10 27 16 30 6 4 10 9 9 11 -1 2 4 18 11 34 7
17 11 36 10 43 -1 6 3 12 9 12 5 0 10 9 10 20 0 11 5 20 11 20 6 0 8 9 4 20
-4 11 -2 20 4 20 6 0 11 6 11 13 0 7 6 21 14 32 13 19 25 20 215 19 111 0 204
-4 207 -7z m3479 0 c18 -6 20 -16 20 -118 0 -102 -2 -112 -24 -134 -16 -18
-28 -22 -39 -16 -10 5 -26 7 -37 5 -11 -2 -30 -4 -42 -4 -37 0 -76 -1 -103 -4
-14 -1 -34 1 -45 5 -11 3 -31 3 -45 -1 -14 -4 -35 -3 -47 1 -14 5 -23 5 -23
-1 0 -6 -9 -6 -22 -1 -13 5 -32 5 -43 1 -11 -4 -23 -6 -27 -4 -3 2 -30 4 -60
4 -57 0 -81 0 -100 0 -7 1 -38 1 -68 1 -30 -1 -66 0 -80 0 -14 1 -36 1 -50 0
-14 -1 -34 -1 -45 -1 -66 1 -96 -3 -109 -16 -8 -8 -19 -14 -25 -14 -6 0 -19
-13 -29 -29 -16 -26 -17 -134 -16 -1777 0 -1054 -3 -1755 -9 -1764 -7 -13 -29
-16 -106 -15 l-96 1 0 1576 -1 1576 -24 36 c-14 20 -38 41 -55 47 -19 8 -111
12 -255 13 l-225 1 -3 148 c-1 81 -7 147 -12 147 -5 0 -15 12 -23 28 -7 15
-19 26 -25 24 -7 -1 -15 4 -18 12 -4 10 -13 12 -33 6 -16 -4 -34 -4 -41 0 -7
4 -25 4 -41 0 -15 -5 -29 -6 -32 -4 -2 2 -28 4 -58 4 -63 0 -81 0 -111 2 -13
0 -32 0 -43 -2 -68 -9 -66 -13 -63 132 3 129 4 132 26 138 34 7 2283 5 2307
-3z m545 1 c0 -3 8 -8 18 -10 16 -3 17 -26 18 -303 0 -240 -2 -302 -13 -310
-9 -6 -188 -10 -493 -10 -264 0 -480 -3 -480 -7 0 -5 -6 -8 -13 -8 -8 0 -29
-16 -47 -36 l-33 -37 0 -1751 c1 -1710 0 -1751 -18 -1772 -20 -21 -48 -24 -83
-9 -10 5 -26 4 -35 -1 -13 -8 -146 -11 -146 -4 0 1 -12 4 -27 6 -16 1 -28 0
-28 -5 0 -9 -308 -7 -337 3 -12 4 -24 3 -27 -3 -8 -12 -56 10 -56 27 0 6 -4
12 -9 12 -4 0 -8 10 -7 23 1 22 2 22 168 22 92 0 170 4 174 8 4 4 18 7 31 7
12 0 23 3 23 8 0 4 10 12 22 17 12 6 26 19 32 30 6 11 13 22 16 25 3 3 5 73 5
155 -1 83 2 155 5 160 9 13 10 245 2 245 -9 0 -8 2369 1 2390 9 25 15 70 8 70
-8 0 -5 364 3 385 3 9 2 14 -3 11 -5 -4 -7 3 -4 14 3 11 0 33 -5 50 -20 57
-27 56 444 55 236 0 434 2 439 7 6 4 29 9 50 11 51 5 105 28 105 44 0 7 8 18
18 24 15 10 17 31 16 227 -1 120 0 222 3 227 4 11 263 14 263 3z m-2648 -555
c14 -17 17 -72 3 -76 -5 -2 -59 -3 -120 -3 l-110 1 -3 34 c-6 56 -3 57 112 58
79 0 109 -3 118 -14z m556 -367 c2 -9 7 -16 10 -16 8 0 10 -2939 2 -2941 -3
-1 -66 -2 -140 -3 -90 -1 -139 2 -147 10 -9 9 -12 360 -12 1480 1 808 4 1474
9 1479 5 6 63 9 142 9 114 -2 133 -4 136 -18z"/>
</g>
</svg>
